<?xml version="1.0" standalone="no"?>
<!DOCTYPE svg PUBLIC "-//W3C//DTD SVG 20010904//EN"
 "http://www.w3.org/TR/2001/REC-SVG-20010904/DTD/svg10.dtd">
<svg version="1.0" xmlns="http://www.w3.org/2000/svg"
 width="459.000000pt" height="179.000000pt" viewBox="0 0 459.000000 179.000000"
 preserveAspectRatio="xMidYMid meet">

<g transform="translate(0.000000,179.000000) scale(0.100000,-0.100000)"
fill="#000000" stroke="none">
<path d="M880 1402 c-170 -13 -217 -37 -306 -161 -59 -82 -92 -105 -80 -56 6
24 4 25 -36 25 -54 0 -92 -19 -96 -47 -4 -31 30 -46 89 -41 27 3 49 2 49 -1 0
-3 -36 -37 -79 -74 l-79 -67 -7 -205 c-7 -201 -2 -303 17 -338 8 -15 21 -17
101 -15 l92 3 9 31 c9 31 10 31 96 38 53 4 98 2 114 -4 36 -13 596 -13 631 0
15 6 63 7 115 3 l89 -6 3 -31 3 -31 96 -3 96 -3 12 29 c9 20 11 103 9 281 l-3
252 -31 24 c-41 32 -124 111 -124 117 0 3 20 3 44 1 53 -6 86 10 86 41 0 28
-35 46 -90 46 -36 0 -40 -3 -40 -25 0 -14 -4 -25 -10 -25 -5 0 -34 33 -63 73
-95 126 -113 140 -207 156 -59 11 -413 20 -500 13z m495 -39 c87 -6 91 -7 123
-42 18 -20 51 -63 73 -96 l39 -60 -27 -9 c-35 -11 -920 -14 -985 -3 l-48 8 17
32 c24 47 101 145 124 157 44 24 424 32 684 13z m-795 -396 c39 -16 63 -34 87
-65 54 -71 51 -74 -84 -66 -135 7 -162 19 -176 78 -7 28 -5 42 8 62 15 24 21
25 63 19 26 -4 72 -16 102 -28z m1148 21 c21 -21 15 -96 -11 -122 -20 -20 -36
-23 -142 -29 -66 -4 -123 -3 -127 1 -10 10 42 88 72 109 24 17 140 51 176 52
11 1 25 -4 32 -11z m-631 -35 c-17 -17 -57 -9 -57 12 0 17 30 24 54 12 16 -8
17 -11 3 -24z m-316 -40 c1 -17 2 -17 6 0 2 9 13 17 23 17 14 0 19 -11 25 -52
3 -29 9 -61 12 -72 4 -16 1 -18 -23 -12 -70 16 -120 136 -57 136 7 0 14 -8 14
-17z m99 -27 c0 -24 3 -58 6 -75 5 -24 3 -31 -9 -31 -16 0 -20 15 -32 103 -6
43 -4 47 14 47 18 0 21 -6 21 -44z m50 -31 c0 -57 -3 -75 -14 -75 -15 0 -26
43 -26 106 0 37 3 44 20 44 18 0 20 -7 20 -75z m40 38 c0 -21 3 -55 6 -75 6
-34 4 -38 -15 -38 -20 0 -21 5 -21 75 0 60 3 75 15 75 11 0 15 -11 15 -37z
m50 -38 c0 -57 -3 -75 -14 -75 -9 0 -15 18 -20 53 -10 85 -8 97 14 97 18 0 20
-7 20 -75z m40 56 c14 -27 13 -104 -2 -119 -23 -23 -28 -12 -28 63 0 75 10 93
30 56z m60 -56 c0 -75 -5 -86 -28 -63 -16 16 -16 110 0 126 23 23 28 12 28
-63z m50 46 c0 -62 -13 -121 -26 -121 -11 0 -14 18 -14 75 0 68 2 75 20 75 15
0 20 -7 20 -29z m40 -46 c0 -70 -1 -75 -21 -75 -19 0 -21 4 -15 31 3 17 6 51
6 75 0 32 4 44 15 44 12 0 15 -15 15 -75z m50 53 c0 -63 -14 -128 -26 -128
-11 0 -14 18 -14 75 0 68 2 75 20 75 14 0 20 -7 20 -22z m51 0 l2 -23 4 23 c5
27 42 31 44 5 1 -17 2 -17 6 0 3 10 12 17 21 15 23 -5 21 -72 -3 -98 -24 -26
-35 -25 -36 3 -1 17 -3 15 -8 -8 -3 -17 -14 -31 -23 -33 -15 -3 -17 3 -13 45
l4 48 -10 -52 c-7 -37 -15 -53 -26 -53 -13 0 -15 8 -9 46 3 26 6 60 6 75 0 22
5 29 20 29 14 0 20 -7 21 -22z m-819 -186 c24 -10 71 -25 106 -33 62 -13 63
-13 56 -44 -11 -56 -20 -58 -135 -43 l-104 13 -3 48 c-3 45 9 77 28 77 5 0 28
-8 52 -18z m1232 2 c16 -16 22 -80 8 -100 -9 -15 -212 -38 -224 -26 -5 5 -11
24 -14 43 l-6 34 64 14 c34 8 81 22 103 32 50 22 50 22 69 3z m-339 -47 c21
-18 27 -32 28 -72 l2 -50 -90 -6 c-116 -9 -384 -9 -500 0 l-90 6 -3 35 c-3 43
16 81 48 97 18 9 100 13 302 13 273 0 277 0 303 -23z"/>
<path d="M791 874 c0 -11 3 -14 6 -6 3 7 2 16 -1 19 -3 4 -6 -2 -5 -13z"/>
<path d="M802 830 c0 -14 2 -19 5 -12 2 6 2 18 0 25 -3 6 -5 1 -5 -13z"/>
<path d="M1351 874 c0 -11 3 -14 6 -6 3 7 2 16 -1 19 -3 4 -6 -2 -5 -13z"/>
<path d="M434 706 c-3 -8 -4 -29 -2 -48 l3 -33 94 -8 c73 -6 96 -5 103 5 17
27 2 42 -52 54 -30 7 -72 20 -92 28 -46 19 -47 20 -54 2z"/>
<path d="M1649 700 c-25 -10 -66 -21 -92 -25 -34 -5 -47 -12 -47 -24 1 -37 14
-43 91 -36 122 10 121 9 117 57 -2 23 -7 43 -13 44 -5 2 -31 -5 -56 -16z"/>
<path d="M776 667 c-9 -7 -20 -31 -23 -54 l-5 -41 97 -7 c109 -8 541 -2 551 8
4 3 3 22 0 41 -13 67 -7 66 -320 66 -214 0 -286 -3 -300 -13z"/>
<path d="M2090 920 l0 -201 58 3 57 3 3 68 3 67 47 0 c60 0 69 -6 107 -77 l33
-58 52 -3 c83 -5 86 -1 49 65 -18 32 -41 68 -52 80 l-20 22 37 34 c42 40 47
75 16 124 -35 58 -67 67 -237 71 l-153 4 0 -202z m268 98 c7 -7 12 -22 12 -35
0 -30 -33 -43 -106 -43 l-54 0 0 45 0 45 68 0 c40 0 73 -5 80 -12z"/>
<path d="M2567 1114 c-4 -4 -7 -24 -7 -45 0 -36 1 -38 38 -41 l37 -3 0 -105
-1 -105 -37 -3 c-38 -3 -38 -3 -35 -45 l3 -42 130 0 130 0 3 42 3 42 -38 3
-38 3 0 105 0 105 38 3 38 3 -3 42 -3 42 -126 3 c-69 1 -128 -1 -132 -4z"/>
<path d="M2900 921 l0 -201 123 0 c67 0 138 5 158 10 118 33 180 156 134 267
-39 94 -89 116 -272 121 l-143 4 0 -201z m271 80 c25 -25 29 -37 29 -81 0 -44
-4 -56 -29 -81 -26 -26 -36 -29 -90 -29 l-61 0 0 110 0 110 61 0 c54 0 64 -3
90 -29z"/>
<path d="M3405 1107 c-3 -7 -4 -96 -3 -197 l3 -185 190 0 190 0 0 40 0 40
-130 5 -130 5 0 30 0 30 75 2 c134 2 122 -2 118 46 l-3 42 -98 3 -98 3 3 27 3
27 130 5 130 5 0 40 0 40 -188 3 c-147 2 -189 0 -192 -11z"/>
<path d="M3830 1110 c0 -5 27 -47 60 -92 33 -45 60 -86 60 -91 0 -5 -29 -50
-65 -98 -36 -49 -65 -94 -65 -99 0 -6 29 -10 65 -10 l64 0 43 60 c23 33 44 60
47 60 4 0 26 -27 49 -60 l44 -60 64 0 c37 0 64 4 64 10 0 6 -29 50 -65 98 -36
47 -65 92 -65 98 0 6 27 48 60 94 33 46 60 87 60 92 0 4 -29 8 -65 8 l-65 0
-36 -55 c-20 -30 -41 -55 -46 -55 -4 0 -24 25 -43 55 l-36 55 -64 0 c-36 0
-65 -4 -65 -10z"/>
</g>
</svg>
