<?xml version="1.0" encoding="UTF-8"?>
<svg version="1.1" xmlns="http://www.w3.org/2000/svg" width="1024" height="1024">
<path d="M0 0 C337.92 0 675.84 0 1024 0 C1024 337.92 1024 675.84 1024 1024 C686.08 1024 348.16 1024 0 1024 C0 686.08 0 348.16 0 0 Z " fill="#FEFEFE" transform="translate(0,0)"/>
<path d="M0 0 C36.31501288 -0.04588521 72.63002064 -0.08107372 108.94505659 -0.10213066 C113.24283075 -0.10463175 117.54060484 -0.10722043 121.83837891 -0.10986328 C122.69390513 -0.1103879 123.54943136 -0.11091252 124.43088262 -0.11145304 C138.24146267 -0.12013022 152.05202589 -0.13588522 165.86259599 -0.15430559 C180.05791695 -0.17307971 194.25322916 -0.18413252 208.44856203 -0.18817699 C217.19150367 -0.19090655 225.93439772 -0.19949348 234.6773247 -0.21583293 C240.69151148 -0.22649281 246.70567405 -0.22958052 252.71986957 -0.22700275 C256.17773255 -0.22573529 259.63551301 -0.22752762 263.0933609 -0.23841095 C283.06253207 -0.29191486 303.00452973 0.0757511 322.625 4.1875 C323.66003662 4.40108154 324.69507324 4.61466309 325.76147461 4.8347168 C360.46886188 12.35176398 394.07678006 30.99890402 413.83154297 61.16894531 C431.69530747 89.16272588 437.85986389 124.28242012 431.03515625 156.8359375 C423.41982752 189.00635299 403.32322447 213.72727766 375.640625 231.109375 C353.73979626 244.12876167 329.75321444 251.55780392 305 257 C305.71285156 257.70125 306.42570312 258.4025 307.16015625 259.125 C320.81221278 272.61689408 332.70171714 287.40926312 343.69189453 303.1328125 C345.0877608 305.12526962 346.49400278 307.11009269 347.90234375 309.09375 C354.23285411 318.01713573 360.47017639 327.00098188 366.64990234 336.02929688 C368.43625635 338.63679228 370.22823596 341.24039623 372.02026367 343.84399414 C376.43913779 350.26485953 380.8478171 356.69268098 385.25 363.125 C385.78794189 363.91092529 386.32588379 364.69685059 386.88012695 365.5065918 C389.83965445 369.83312465 392.79263242 374.16400492 395.73828125 378.5 C431.4809421 432.1676409 431.4809421 432.1676409 486 464 C483.29596572 470.00451271 477.88312812 471.59502894 472 474 C432.86314516 486.58262139 390.14310147 483.69162702 353.48535156 465.30615234 C345.25648095 461.05380301 338.09983435 455.92424248 331 450 C330.10410156 449.2575 329.20820312 448.515 328.28515625 447.75 C322.08071822 442.3964017 317.06013871 436.42145036 312 430 C310.54238534 428.27022748 309.08404479 426.54106639 307.625 424.8125 C303.0534033 419.22236103 299.01169495 413.33828937 294.96875 407.36328125 C293.01970021 404.48417893 291.04272267 401.62880474 289.03125 398.79296875 C277.95377457 383.17216528 267.4078341 367.1987203 256.81933594 351.24462891 C254.13560635 347.20200958 251.4436716 343.16490517 248.75 339.12890625 C245.82484669 334.74587737 242.91203245 330.35523946 240.015625 325.953125 C217.37164431 288.18255806 217.37164431 288.18255806 180.98828125 266.40234375 C171.63927851 265.14358913 161.97122573 264.26071747 154 270 C150.29630038 275.77266286 150.85133992 282.93144762 150.85473633 289.53100586 C150.85137772 290.47339111 150.8480191 291.41577637 150.84455872 292.38671875 C150.83507728 295.49610726 150.83310652 298.60544169 150.83203125 301.71484375 C150.82881498 303.88993857 150.82545063 306.06503319 150.82194519 308.24012756 C150.81595969 312.8020986 150.81410452 317.36405071 150.81469727 321.92602539 C150.81479845 327.73570472 150.80118846 333.54526065 150.78392506 339.35491085 C150.77273137 343.85143069 150.77078036 348.34792148 150.77130699 352.84445381 C150.77013633 354.98398829 150.76576664 357.12352375 150.75797462 359.26304436 C150.68092291 382.61981151 151.87291225 403.52867788 168.5078125 421.5078125 C171.87643387 424.87643387 175.45519545 427.96151588 179.12890625 430.9921875 C181 433 181 433 181 437 C177.2913158 438.17300895 173.78487051 438.12304385 169.91326904 438.12025452 C169.19931323 438.12110894 168.48535742 438.12196337 167.74976659 438.12284368 C165.35756626 438.12449073 162.96543606 438.11898979 160.57324219 438.11352539 C158.85838828 438.11324333 157.14353426 438.11340163 155.42868042 438.1139679 C150.77203045 438.11425512 146.11540617 438.1083705 141.45876217 438.10139394 C136.59272835 438.09514791 131.72669395 438.09455561 126.86065674 438.09336853 C117.64554957 438.09025891 108.43045425 438.08205047 99.2153523 438.07201904 C88.72452967 438.06084647 78.23370648 438.05534457 67.74287939 438.05032361 C46.16191298 438.03986757 24.58095724 438.02227524 3 438 C3.84160382 433.40114891 6.58815815 431.37522318 10 428.4375 C22.6478495 417.12575203 33.65754921 403.30459478 36 386 C36.09778546 383.60711403 36.14586188 381.21194416 36.15821838 378.8170929 C36.16315707 378.11485157 36.16809575 377.41261025 36.1731841 376.68908888 C36.18850318 374.34131213 36.19691241 371.99356287 36.20532227 369.64575195 C36.21490641 367.95052677 36.22490593 366.25530389 36.23528671 364.56008339 C36.26238822 359.92728712 36.28338435 355.29448063 36.30327249 350.66164851 C36.32546197 345.72262112 36.35309635 340.78362369 36.37992859 335.84461975 C36.44245966 324.1011761 36.49556806 312.35769713 36.54769325 300.61420345 C36.57227653 295.13246765 36.59802517 289.65073733 36.62365723 284.16900635 C36.73535013 260.164664 36.8370298 236.16029355 36.92922783 212.15586853 C36.96636099 202.49739623 37.00419659 192.83893082 37.04681396 183.18048096 C37.05245061 181.90222599 37.05245061 181.90222599 37.05820113 180.59814769 C37.06190237 179.75938647 37.06560361 178.92062525 37.069417 178.05644703 C37.13546908 163.08578606 37.19259 148.11517161 37.22300434 133.14439106 C37.23631681 126.65314606 37.25386145 120.1619989 37.28372192 113.67080688 C37.31074243 107.70755966 37.32333934 101.74446339 37.32413673 95.78115654 C37.32673461 93.6591408 37.33430505 91.53712346 37.34760094 89.41514778 C37.53216437 58.53044541 26.82364578 32.23073348 5.375 9.875 C4.84173096 9.34261719 4.30846191 8.81023437 3.7590332 8.26171875 C0 4.41681774 0 4.41681774 0 0 Z " fill="#010202" transform="translate(274,278)"/>
<path d="M0 0 C1.60214348 0.00426172 3.20429318 0.00657998 4.80644226 0.00706482 C8.16299535 0.01321578 11.51887747 0.03581952 14.87524414 0.0715332 C19.12025847 0.1164065 23.36466562 0.13136105 27.6098938 0.13553524 C62.86777803 0.17967739 101.28843169 0.50444009 128.6015625 26.359375 C142.84618101 41.41440944 144.37053475 61.27077532 143.83105469 80.90185547 C143.00304087 97.58786729 135.65414844 110.20173154 123.68359375 121.453125 C116.86174518 127.22045118 108.75735297 130.85653815 100.69921875 134.55859375 C99.69503906 135.03425781 98.69085937 135.50992188 97.65625 136 C90.55135833 139.05865107 83.25366115 140.68364147 75.69921875 142.24609375 C74.7337915 142.44871826 73.76836426 142.65134277 72.77368164 142.86010742 C53.31440842 146.64091944 33.6543366 146.93519253 13.90039062 146.92919922 C10.35767784 146.92899255 6.81573627 146.95674308 3.27320862 146.99074364 C-0.14730086 147.01827213 -3.56766243 147.01715509 -6.98828125 147.01953125 C-8.252771 147.03390228 -9.51726074 147.04827332 -10.82006836 147.06307983 C-11.9931958 147.05692657 -13.16632324 147.05077332 -14.375 147.04443359 C-15.91546997 147.04870865 -15.91546997 147.04870865 -17.48706055 147.05307007 C-21.22004751 146.39704417 -22.74321154 145.36004649 -25.30078125 142.55859375 C-27.69553934 136.06263859 -27.59119196 129.63953524 -27.57543945 122.77758789 C-27.58055038 121.62044785 -27.58566132 120.4633078 -27.59092712 119.27110291 C-27.6047798 115.46193205 -27.60386968 111.65294299 -27.6015625 107.84375 C-27.60446785 105.85848771 -27.60737836 103.87322535 -27.61096925 101.88796419 C-27.62203561 95.65193494 -27.62251789 89.41596594 -27.61645508 83.17993164 C-27.6104155 76.76671784 -27.62273234 70.35372344 -27.64402515 63.94054705 C-27.6616899 58.41501129 -27.66763491 52.88954507 -27.6643874 47.36398214 C-27.66258234 44.07230262 -27.66646382 40.78081362 -27.67910194 37.48915291 C-27.69147686 33.81559598 -27.68466787 30.14254336 -27.6730957 26.46899414 C-27.68073944 25.39183136 -27.68838318 24.31466858 -27.69625854 23.2048645 C-27.65006919 16.55064629 -27.49550148 9.03002453 -22.74620819 3.86937141 C-16.50074749 -1.30909578 -7.63604861 -0.10215669 0 0 Z " fill="#FEFEFE" transform="translate(452.30078125,341.44140625)"/>
<path d="M0 0 C0.66 0.33 1.32 0.66 2 1 C-8.89 11.89 -19.78 22.78 -31 34 C-31 31 -31 31 -28.55078125 28.2578125 C-27.4788468 27.20585198 -26.39904283 26.16186502 -25.3125 25.125 C-24.51682617 24.34962891 -24.51682617 24.34962891 -23.70507812 23.55859375 C-22.64235756 22.52325617 -21.57699487 21.49062382 -20.5090332 20.46069336 C-18.31208582 18.33412223 -16.15707792 16.1669426 -14 14 C-12.81666112 12.81615143 -11.63304677 11.63257818 -10.44921875 10.44921875 C-9.52592773 9.52592773 -9.52592773 9.52592773 -8.58398438 8.58398438 C-5.72265625 5.72265625 -2.86132812 2.86132812 0 0 Z " fill="#F2F2F2" transform="translate(257,230)"/>
</svg>
